# xmcd CD database file
#
# Track frame offsets:
#	150
#	14165
#	35365
#	47896
#	62132
#	76776
#	96314
#	110204
#	130728
#	147631
#
# Disc length: 2296 seconds
#
# Revision: 0
# Processed by: cddbd v1.5.1PL2 Copyright (c) Steve Scherf et al.
# Submitted via: CDex 1.51
#
DISCID=9208f60a
DTITLE=Gina Villalobos - Miles away
DYEAR=2006
DGENRE=Country
TTITLE0=Miles away
TTITLE1=Hard enough
TTITLE2=Don't let go
TTITLE3=If I can't have you
TTITLE4=Face on the sheets
TTITLE5=Let's fall apart
TTITLE6=Don't defeat me
TTITLE7=Somewhere to lay on
TTITLE8=Tied to my side
TTITLE9=Somebody save me
EXTD=YEAR: 2006
EXTT0=
EXTT1=
EXTT2=
EXTT3=
EXTT4=
EXTT5=
EXTT6=
EXTT7=
EXTT8=
EXTT9=
PLAYORDER=
